<svg id="Camada_1" data-name="Camada 1" xmlns="http://www.w3.org/2000/svg" viewBox="0 0 80 71.78"><defs><style>.cls-1{fill:#ff9f32;}</style></defs><path class="cls-1" d="M3.78,31.65c-.13,0-.5,0-1-.84v-.48L3,30.09a5.73,5.73,0,0,1,.81-.82Q19.18,18,34.58,6.73l2.81-2.05a2.11,2.11,0,0,1,1-.53,2.12,2.12,0,0,1,1.06.53L73.31,29.43a1.61,1.61,0,0,1,.77,1.28,1,1,0,0,1-.52.77,1.09,1.09,0,0,1-.54.17,1.65,1.65,0,0,1-1-.41q-3.93-2.89-7.88-5.77L57.68,20.7Q48.58,14,39.48,7.35a1.74,1.74,0,0,0-1-.39,1.79,1.79,0,0,0-1.06.41L8.65,28.42,5,31.12A2.28,2.28,0,0,1,3.78,31.65Z"/><path class="cls-1" d="M12,67.54a1.07,1.07,0,0,1-1.19-1.14c0-.16,0-.33,0-.49V35.14a6.12,6.12,0,0,1,0-.88,1,1,0,0,1,1.05-.92,1.07,1.07,0,0,1,1.08,1,4.34,4.34,0,0,1,0,.51V65.31l1,0,.51,0H21.1c2.35,0,4.7,0,7,0h0a1.44,1.44,0,0,0,1.63-1.65c0-5.1,0-10.2,0-15.3a8.73,8.73,0,0,1,6.55-8.75,8.44,8.44,0,0,1,2.12-.27A8.53,8.53,0,0,1,47,47.37c.12,2.06.1,4.18.09,6.23,0,.88,0,1.75,0,2.62q0,3.84,0,7.69A1.45,1.45,0,0,0,47.46,65a1.31,1.31,0,0,0,1,.36H62.76a1.06,1.06,0,0,0,.34-.05l.77-.16V34.73c0-.52.14-1.39,1.07-1.39H65a1,1,0,0,1,1,.82,5.06,5.06,0,0,1,0,.77v31c0,1.36-.27,1.64-1.63,1.64H46.48c-1.26,0-1.55-.29-1.55-1.57V60.59q0-6.17,0-12.34a6.49,6.49,0,0,0-6.21-6.63h-.27A6.47,6.47,0,0,0,32,48.18q0,3.81,0,7.62c0,3.44,0,6.88,0,10.32a1.86,1.86,0,0,1-.35,1.09,1.35,1.35,0,0,1-.84.3c-3.53,0-7.07,0-10.61,0Z"/></svg>